<svg id="Layer_1" data-name="Layer 1" xmlns="http://www.w3.org/2000/svg" viewBox="0 0 617.61 95.95"><defs><style>.cls-1{fill:#ffffff;}.cls-2{fill:#ffffff;}</style></defs><title>Artboard 1</title><path class="cls-1" d="M137.15,71.72c-16.87,0-23.09-10-23.09-25.38,0-13.32,5.55-25,23.31-25a47.63,47.63,0,0,1,13.18,2l-3.4,9.4C144,31.38,140.92,30,137.37,30c-8.29,0-11.69,5.18-11.69,16.28,0,11.77,3.11,16.8,11.25,16.8,4.14,0,6.88-1.55,10.73-3.11l3.4,9.4a38.73,38.73,0,0,1-13.91,2.37"/><path class="cls-1" d="M170.6,43c-4.44,0-7.25,1.85-7.25,10.14,0,7.4,2.67,10.51,7.25,10.51,3.92,0,7.18-2.29,7.18-10.51S175.26,43,170.6,43m0,28.34c-12.65,0-17.61-8.43-17.61-18.2,0-9.4,5-17.84,17.61-17.84,12.8,0,17.54,8,17.54,17.84s-5,18.2-17.54,18.2"/><path class="cls-1" d="M234.76,70.23V48.77c0-5-1.48-5.77-3.48-5.77-3.85,0-6.22,3.7-7.47,7.11V70.23H213.66V48.77c0-5.33-1.11-5.77-4.07-5.77-3.18,0-5.62,5-6.51,6.66V70.23H192.94V44.18c0-2.81-.74-5.25-1-7.77h9.4l1.41,4.22c1-1.48,5-5.33,8.81-5.33,5.77,0,7.47.74,11,4.81C224.47,37,228,35.3,232.91,35.3c8.14,0,12,4.29,12,13.32V70.23Z"/><path class="cls-1" d="M293.25,70.23V48.77c0-5-1.48-5.77-3.48-5.77-3.85,0-6.21,3.7-7.47,7.11V70.23H272.16V48.77c0-5.33-1.11-5.77-4.07-5.77-3.18,0-5.62,5-6.51,6.66V70.23H251.43V44.18c0-2.81-.74-5.25-1-7.77h9.4l1.41,4.22c1-1.48,5-5.33,8.81-5.33,5.77,0,7.47.74,11,4.81C283,37,286.51,35.3,291.4,35.3c8.14,0,12,4.29,12,13.32V70.23Z"/><path class="cls-1" d="M325.05,43.15c-1.48,0-6,.37-6.22,7h13c-.52-5.62-3.48-7-6.81-7m-6.29,14.51c.89,4.51,3.85,6.14,7.33,6.14a25.32,25.32,0,0,0,10.43-2.89l3.33,7.7a36.7,36.7,0,0,1-14.36,2.66c-11.32,0-17.32-8.21-17.32-17.61,0-7.84,3.62-18.28,16.8-18.28,12.87,0,17,6.81,17,22.28Z"/><path class="cls-1" d="M367.38,44.41A5.75,5.75,0,0,0,363.16,43c-3.7,0-5.4,5.25-6.14,7.18V70.23H346.88V44a43.87,43.87,0,0,0-1-7.55h9.4l1.48,4.66c1.19-2,4-5.77,7.4-5.77a22.64,22.64,0,0,1,6.59.89Z"/><path class="cls-1" d="M388.62,71.27c-11.47,0-17.61-7.33-17.61-17.69,0-11,6-18.2,17.84-18.2a44.88,44.88,0,0,1,11.69,2.44l-3.48,8.29c-2.51-1.26-5.77-3-8.29-3-4.66,0-7.4,1.77-7.4,10.43,0,7.92,3.48,9.92,7.33,9.92,2.3,0,5.85-1.48,8.73-3l3.48,8.29c-2.59,1.26-9.69,2.44-12.29,2.44"/><path class="cls-1" d="M419.3,43.15c-1.48,0-6,.37-6.22,7h13c-.52-5.62-3.48-7-6.81-7M413,57.66c.89,4.51,3.85,6.14,7.33,6.14a25.32,25.32,0,0,0,10.43-2.89l3.33,7.7a36.71,36.71,0,0,1-14.36,2.66c-11.32,0-17.32-8.21-17.32-17.61,0-7.84,3.63-18.28,16.8-18.28,12.88,0,17,6.81,17,22.28Z"/><path class="cls-1" d="M478,49.88h-8.81V61.58h9.62c2.29,0,4.88-1.63,4.88-5.55,0-4.37-2.52-6.14-5.7-6.14M476.8,31h-7.62V41.3h8.66c2.29,0,3.7-2,3.7-5.4,0-1.48-.59-4.88-4.74-4.88m2.44,39.22H457.93V22.35H476.8c8.73,0,16.13,3.18,16.13,13.47,0,5-3.25,8.21-7.62,9.32,5.92.59,9.84,4.07,9.84,10.88,0,11-7.62,14.21-15.91,14.21"/><path class="cls-1" d="M520.91,55.88h-1.63c-6.66,0-9.32,1.7-9.32,5,0,2.44,3,2.59,5.18,2.59s4.51-2.3,5.77-3.7Zm1.93,14.35c-.08,0-1.33-3.25-1.33-3.11-1.93,1.48-5,4.14-8.44,4.14-9.47,0-13.62-3.62-13.62-9.91,0-6.88,4.36-12.73,18.79-12.73h2.59V47.52c0-1.63,0-4.37-3.85-4.37a31.68,31.68,0,0,0-12.8,3l-3.48-8.29a56.54,56.54,0,0,1,16.95-2.44c7.77,0,13.4,3.4,13.4,10.8V59.87c0,2.66,1,6.74,1.48,10.36Z"/><path class="cls-1" d="M559,70.23v-22c0-2.37,0-5.25-4.14-5.25-3,0-5,3.48-6.73,6.74v20.5H538V43.59a38.94,38.94,0,0,0-1-7.18h9.4l1.48,4.14c1.48-1.41,4.37-5.25,8.81-5.25,10.36,0,12.44,5.85,12.44,13.62V70.23Z"/><polygon class="cls-1" points="596.33 70.23 585.75 53.66 585.75 70.23 575.61 70.23 575.61 21.61 585.75 21.61 585.75 49.44 595.22 36.42 606.1 36.42 595.3 51.07 607.88 70.23 596.33 70.23"/><polygon class="cls-1" points="524.07 87.47 524.07 78 520.55 87.47 518.89 87.47 515.36 78 515.36 87.47 513.71 87.47 513.71 76.14 516.49 76.14 519.78 85.09 523.12 76.14 525.77 76.14 525.77 87.47 524.07 87.47"/><path class="cls-1" d="M531.26,80.47c-.94,0-1.84.68-1.92,2.43h4c-.05-1.72-.79-2.43-2.07-2.43m-1.91,3.61c.11,1.49.73,2.43,2.12,2.43a5.46,5.46,0,0,0,2.43-.68l.51,1.22a7.38,7.38,0,0,1-3.08.63c-2.5,0-3.64-1.91-3.64-4.13,0-1.86.75-4.29,3.56-4.29s3.61,1.78,3.61,4.81Z"/><path class="cls-1" d="M546.19,87.47V82.39c0-1.19-.32-1.93-1.45-1.93a2.33,2.33,0,0,0-2,1.68v5.32h-1.56V82.39c0-1.4-.47-1.93-1.48-1.93s-1.61,1-1.86,1.58v5.42H536.3V81.31c0-.67-.14-1.24-.19-1.84h1.42l.3,1.14A3,3,0,0,1,540,79.24a2.51,2.51,0,0,1,2.52,1.45,2.91,2.91,0,0,1,2.45-1.45c1.86,0,2.8,1,2.8,3.12v5.11Z"/><path class="cls-1" d="M553.1,80.47c-1.09,0-1.65,1-2,1.63V85.3a1.91,1.91,0,0,0,1.75,1.17c1.28,0,2.08-.89,2.08-3,0-2.29-.81-3-1.85-3m0,7.21a2.42,2.42,0,0,1-2-1.09l-.28.88H549.4A16.17,16.17,0,0,0,549.6,85V76h1.56v4.62a2.71,2.71,0,0,1,2.16-1.33c2.38,0,3.25,1.94,3.25,4.17s-1.1,4.25-3.48,4.25"/><path class="cls-1" d="M561.26,80.47c-.94,0-1.84.68-1.93,2.43h4c-.05-1.72-.79-2.43-2.07-2.43m-1.91,3.61c.1,1.49.74,2.43,2.12,2.43a5.48,5.48,0,0,0,2.44-.68l.51,1.22a7.38,7.38,0,0,1-3.08.63c-2.5,0-3.64-1.91-3.64-4.13,0-1.86.75-4.29,3.55-4.29s3.61,1.78,3.61,4.81Z"/><path class="cls-1" d="M570.62,81a2.13,2.13,0,0,0-1.21-.49c-1,0-1.35,1.43-1.56,1.93v5.08H566.3V81.25a11.32,11.32,0,0,0-.19-1.78h1.42l.28,1.4c.28-.54,1-1.63,1.89-1.63a2.66,2.66,0,0,1,1.49.4Z"/><polygon class="cls-1" points="578.46 77.51 578.46 81.01 582.99 81.01 582.99 82.34 578.46 82.34 578.46 87.47 576.71 87.47 576.71 76.14 583.2 76.14 583.2 77.51 578.46 77.51"/><path class="cls-1" d="M588.37,77.49h-1.49v8.63h1.64c2.21,0,3.45-1,3.45-4.34,0-3.56-1.28-4.29-3.6-4.29m0,10h-3.24V76.14h3.24c3.78,0,5.4,1.51,5.4,5.62s-1.63,5.71-5.4,5.71"/><rect class="cls-1" x="595.88" y="76.14" width="1.75" height="11.33"/><path class="cls-1" d="M604.69,87.78c-3.64,0-5-2.47-5-6,0-3.15,1.21-5.88,5.06-5.88a9.54,9.54,0,0,1,2.87.44l-.56,1.49a5.79,5.79,0,0,0-2.31-.58c-2.48,0-3.26,1.89-3.26,4.52,0,2.78.77,4.64,3.15,4.64a6.51,6.51,0,0,0,2.54-.66l.56,1.49a8.68,8.68,0,0,1-3.08.52"/><path class="cls-1" d="M22.65,81.68c2.54.21,5.23.3,8,.31q-.42-.69-.84-1.4c-1-1.71-1.94-3.49-2.84-5.32s-1.72-3.73-2.5-5.66S23,65.7,22.36,63.68q-.47-1.52-.88-3.07c-.08-.32-.16-.64-.24-1h-.31c-3-.06-5.92-.19-8.89-.5-1.48-.15-3-.34-4.45-.57s-3-.53-4.43-.9Q2,57.4.86,57A47.08,47.08,0,0,0,12.49,80c.51.14,1,.27,1.57.4A60.8,60.8,0,0,0,22.65,81.68Z"/><path class="cls-1" d="M65.34,83l-2.21.57c-.08.8-.16,1.59-.26,2.37-.23,1.76-.51,3.46-.85,5.08q-.38,1.77-.85,3.41a49.9,49.9,0,0,0,7.75-2.6q.89-.7,1.73-1.44a38.4,38.4,0,0,0,2.95-2.88,36.18,36.18,0,0,0,2.6-3.15A40,40,0,0,0,78.43,81a36.47,36.47,0,0,0,1.76-3.45q-2.19,1.07-4.53,2A89.17,89.17,0,0,1,65.34,83Z"/><path class="cls-1" d="M12.49,24.57a58.22,58.22,0,0,0,6.22.57c.18-1.2.39-2.38.63-3.53a53.37,53.37,0,0,1,3-9.83,44.88,44.88,0,0,1,2.84-5.62A49.14,49.14,0,0,0,7.13,23.25c.65.24,1.32.45,2,.63A31.83,31.83,0,0,0,12.49,24.57Z"/><path class="cls-1" d="M8.16,54.27q2.1.2,4.22.28,3.84.14,7.72.05c-.23-1.07-.45-2.14-.64-3.19q-.54-3.1-.93-6.19A84.36,84.36,0,0,1,18,33c0-1.16.11-2.31.2-3.45a52.5,52.5,0,0,1-6.46-1,28.72,28.72,0,0,1-6.45-2.11,46.82,46.82,0,0,0-5.17,25c0,.5.08,1,.13,1.49,1.22.33,2.48.59,3.74.8S6.76,54.14,8.16,54.27Z"/><path class="cls-1" d="M57.93,69.13c-.2-2-.43-3.95-.7-6s-.56-4-.9-6.07l-.08-.48-.17,0c-2.91.49-5.81.94-8.72,1.32s-5.83.7-8.76,1-5.86.46-8.8.59L27,59.61q.31,1.25.66,2.49c.54,1.9,1.16,3.77,1.82,5.62s1.38,3.65,2.15,5.42S33.17,76.63,34,78.3q.93,1.86,1.93,3.61l1.62-.05c1.75-.07,3.52-.19,5.3-.31s3.57-.29,5.37-.48,3.6-.39,5.39-.64,3.38-.48,5-.78c0-1.55-.13-3.12-.24-4.74C58.3,73,58.14,71.09,57.93,69.13Z"/><path class="cls-1" d="M38.05,53.39c2.86-.3,5.71-.63,8.56-1s5.7-.78,8.52-1.25l.12,0,0-.19c-.39-2.07-.8-4.14-1.22-6.21s-.88-4.12-1.36-6.16-1-4.07-1.5-6.07c-.41-1.56-.84-3.1-1.29-4.62l-1.19.19q-3.64.57-7.3,1c-2.44.26-4.89.49-7.34.63s-4.92.26-7.39.25q-1.72,0-3.44,0,0,1.58,0,3.19c0,1.86.13,3.76.28,5.67s.35,3.85.62,5.8.57,3.91.93,5.87c.26,1.35.51,2.65.8,4,1.22-.07,2.45-.14,3.67-.23C32.34,53.95,35.2,53.7,38.05,53.39Z"/><path class="cls-1" d="M52.62,95.82a51.08,51.08,0,0,0,5.21-.64l0-.24c.25-1.39.44-2.87.57-4.42s.23-3.17.26-4.86c0-.38,0-.76,0-1.14-1.48.26-3,.5-4.46.7q-2.79.37-5.58.62c-1.86.17-3.71.28-5.55.38-1.51.08-3,.12-4.51.13l.84,1.27a81.62,81.62,0,0,0,5.89,7.73l.43.5A50.93,50.93,0,0,0,52.62,95.82Z"/><path class="cls-1" d="M73.27,52c-2.8,1-5.62,1.88-8.47,2.65l-2.73.72.12.84c.29,2.13.56,4.23.75,6.32s.35,4.16.45,6.2.14,4,.15,6c0,1.32,0,2.61-.09,3.89l.7-.16c3.44-.86,6.8-1.83,10-3a81.89,81.89,0,0,0,8-3.26q.38-1.28.68-2.57A52.83,52.83,0,0,0,84,61.63a61.64,61.64,0,0,0,0-8.18c-.09-1.36-.22-2.72-.39-4.07-.07-.54-.15-1.07-.23-1.6l-1.9.9Q77.47,50.51,73.27,52Z"/><path class="cls-1" d="M63.14,24.61c-2.36.77-4.74,1.42-7.15,2l-.56.14c.46,1.37.91,2.76,1.32,4.16.6,2.06,1.17,4.14,1.7,6.23s1,4.21,1.46,6.33l.65,3.18.59,3.18v.07l2.25-.55c2.76-.7,5.52-1.44,8.23-2.29s5.41-1.75,8-2.79c1-.37,1.91-.76,2.85-1.16v-.06q-.24-1.12-.53-2.24-.57-2.24-1.27-4.45c-.47-1.47-1-2.94-1.51-4.38s-1.13-2.87-1.76-4.28a65.52,65.52,0,0,0-3.8-7.32q-1.75.87-3.54,1.62C67.84,23,65.5,23.85,63.14,24.61Z"/><path class="cls-1" d="M33.68,24.73c2.38-.2,4.76-.42,7.13-.7s4.75-.59,7.11-.93l.43-.07c-.23-.71-.47-1.42-.71-2.12q-.48-1.39-1-2.73c-.33-.9-.68-1.78-1-2.65-.71-1.74-1.46-3.41-2.23-5A57.62,57.62,0,0,0,38.32,1.9l-.43-.58a49.92,49.92,0,0,0-8.86,3c-.17.34-.34.68-.51,1a49.74,49.74,0,0,0-2.88,7.63,60.71,60.71,0,0,0-1.91,9.41q-.17,1.41-.29,2.86c1,0,2.07,0,3.11-.07C28.92,25.05,31.3,24.92,33.68,24.73Z"/><path class="cls-1" d="M41.71.58a53.76,53.76,0,0,1,5.58,7.81c1,1.63,1.91,3.34,2.78,5.12s1.73,3.62,2.5,5.52c.41,1,.82,2,1.21,3l1.1-.24c2.31-.51,4.61-1.11,6.89-1.75s4.52-1.39,6.73-2.19c1-.35,1.89-.73,2.82-1.12a51.13,51.13,0,0,0-3.59-4.55A45.43,45.43,0,0,0,64.5,9,44.27,44.27,0,0,0,61,6.06a40.21,40.21,0,0,0-3.86-2.48,36.75,36.75,0,0,0-4.14-2A37.79,37.79,0,0,0,48.58,0l-.09,0q-1.33,0-2.66.12C44.44.22,43.06.37,41.71.58Z"/><path class="cls-1" d="M62.77,3.37a43.15,43.15,0,0,1,4.05,2.87,41.44,41.44,0,0,1,3.7,3.32c1.17,1.17,2.28,2.4,3.33,3.68.46.56.9,1.14,1.34,1.72.93-.49,1.83-1,2.7-1.56a19,19,0,0,0,2.64-2l.33-.32A49.52,49.52,0,0,0,57.49.64l.91.4A42.42,42.42,0,0,1,62.77,3.37Z"/><path class="cls-1" d="M92.29,69.57a40.51,40.51,0,0,1-3.46,2.85c-1,.73-2.07,1.44-3.18,2.13a43.56,43.56,0,0,1-2,4.46,38,38,0,0,1-5,7.3A48.72,48.72,0,0,0,93.93,67.92Q93.16,68.76,92.29,69.57Z"/><path class="cls-1" d="M36.24,90c-.95-1.18-1.88-2.42-2.79-3.71l-1.13,0a86.53,86.53,0,0,1-10.12-1c-1.9-.31-3.74-.69-5.48-1.14A49.5,49.5,0,0,0,40.94,95.3c-.42-.42-.83-.86-1.24-1.3C38.53,92.75,37.37,91.42,36.24,90Z"/><path class="cls-1" d="M90.39,21.5l-.5-.73a48.2,48.2,0,0,0-6.38-7.35l-.46.52a26.82,26.82,0,0,1-5.54,4.35,67.12,67.12,0,0,1,4.17,7.5q1.05,2.23,2,4.51c.6,1.52,1.17,3.06,1.67,4.62s1,3.13,1.38,4.72c.12.47.23.95.34,1.42l.39-.19c1.24-.64,2.46-1.33,3.63-2.07A30.68,30.68,0,0,0,94.4,36.4a19.37,19.37,0,0,0,2.1-2A46.91,46.91,0,0,0,90.39,21.5Z"/><path class="cls-1" d="M98.33,44.48a47.19,47.19,0,0,0-.87-6.26c-.24.26-.48.51-.72.75a39.83,39.83,0,0,1-7.26,5.53c-.51.32-1,.62-1.55.91v.06c.07.37.13.74.19,1.11q.18,1.1.31,2.2.27,2.2.36,4.41A58.92,58.92,0,0,1,88.56,62a51.37,51.37,0,0,1-1.33,7.51,38.65,38.65,0,0,0,3.22-2.15,22.33,22.33,0,0,0,5.08-5A12,12,0,0,0,96.86,60q.36-1.32.63-2.67.24-1.14.41-2.3A47,47,0,0,0,98.33,44.48Z"/><path class="cls-2" d="M612.19,32.1a5.4,5.4,0,1,1,5.42-5.4A5.35,5.35,0,0,1,612.19,32.1Zm0-9.94a4.46,4.46,0,0,0-4.46,4.54,4.46,4.46,0,1,0,4.46-4.54Zm1.36,7.7-2.07-2.7h-.42v2.7h-1V23.54h2.2c1,0,2.12.39,2.12,1.78a1.68,1.68,0,0,1-1.71,1.79l2.1,2.73Zm-1.25-5.5h-1.24v2h1.26a.93.93,0,0,0,1-1.05C613.36,24.71,613,24.35,612.31,24.35Z"/></svg>
